<svg width="103" height="17" viewBox="0 0 103 17" fill="none" xmlns="http://www.w3.org/2000/svg">
<path d="M0.390625 16V-4.76837e-07H10.9844V2.78906H3.77344V6.60156H10.2813V9.39062H3.77344V16H0.390625ZM13.0039 16V4H16.2305V6.09375H16.3555C16.5742 5.34896 16.9414 4.78646 17.457 4.40625C17.9727 4.02083 18.5664 3.82812 19.2383 3.82812C19.4049 3.82812 19.5846 3.83854 19.7773 3.85937C19.9701 3.88021 20.1393 3.90885 20.2852 3.94531V6.89844C20.1289 6.85156 19.9128 6.8099 19.6367 6.77344C19.3607 6.73698 19.1081 6.71875 18.8789 6.71875C18.3893 6.71875 17.9518 6.82552 17.5664 7.03906C17.1862 7.2474 16.8841 7.53906 16.6602 7.91406C16.4414 8.28906 16.332 8.72135 16.332 9.21094V16H13.0039ZM26.8691 16.2344C25.6556 16.2344 24.6061 15.9766 23.7207 15.4609C22.8405 14.9401 22.1608 14.2161 21.6816 13.2891C21.2025 12.3568 20.9629 11.276 20.9629 10.0469C20.9629 8.80729 21.2025 7.72396 21.6816 6.79687C22.1608 5.86458 22.8405 5.14062 23.7207 4.625C24.6061 4.10417 25.6556 3.84375 26.8691 3.84375C28.0827 3.84375 29.1296 4.10417 30.0098 4.625C30.8952 5.14062 31.5775 5.86458 32.0566 6.79687C32.5358 7.72396 32.7754 8.80729 32.7754 10.0469C32.7754 11.276 32.5358 12.3568 32.0566 13.2891C31.5775 14.2161 30.8952 14.9401 30.0098 15.4609C29.1296 15.9766 28.0827 16.2344 26.8691 16.2344ZM26.8848 13.6562C27.4368 13.6562 27.8978 13.5 28.2676 13.1875C28.6374 12.8698 28.916 12.4375 29.1035 11.8906C29.2962 11.3437 29.3926 10.7214 29.3926 10.0234C29.3926 9.32552 29.2962 8.70313 29.1035 8.15625C28.916 7.60937 28.6374 7.17708 28.2676 6.85937C27.8978 6.54167 27.4368 6.38281 26.8848 6.38281C26.3275 6.38281 25.8587 6.54167 25.4785 6.85937C25.1035 7.17708 24.8197 7.60937 24.627 8.15625C24.4395 8.70313 24.3457 9.32552 24.3457 10.0234C24.3457 10.7214 24.4395 11.3437 24.627 11.8906C24.8197 12.4375 25.1035 12.8698 25.4785 13.1875C25.8587 13.5 26.3275 13.6562 26.8848 13.6562ZM38.2676 9.0625V16H34.9395V4H38.1113V6.11719H38.252C38.5176 5.41927 38.9629 4.86719 39.5879 4.46094C40.2129 4.04948 40.9707 3.84375 41.8613 3.84375C42.6947 3.84375 43.4212 4.02604 44.041 4.39062C44.6608 4.75521 45.1426 5.27604 45.4863 5.95312C45.8301 6.625 46.002 7.42708 46.002 8.35937V16H42.6738V8.95312C42.679 8.21875 42.4915 7.64583 42.1113 7.23438C41.7311 6.81771 41.2077 6.60937 40.541 6.60937C40.0931 6.60937 39.6973 6.70573 39.3535 6.89844C39.015 7.09115 38.7493 7.3724 38.5566 7.74219C38.3691 8.10677 38.2728 8.54688 38.2676 9.0625ZM55.0078 4V6.5H47.7813V4H55.0078ZM49.4219 1.125H52.75V12.3125C52.75 12.6198 52.7969 12.8594 52.8906 13.0312C52.9844 13.1979 53.1146 13.3151 53.2813 13.3828C53.4531 13.4505 53.651 13.4844 53.875 13.4844C54.0313 13.4844 54.1875 13.4714 54.3438 13.4453C54.5 13.4141 54.6198 13.3906 54.7031 13.375L55.2266 15.8516C55.0599 15.9036 54.8255 15.9635 54.5234 16.0313C54.2214 16.1042 53.8542 16.1484 53.4219 16.1641C52.6198 16.1953 51.9167 16.0885 51.3125 15.8437C50.7135 15.599 50.2474 15.2187 49.9141 14.7031C49.5807 14.1875 49.4167 13.5365 49.4219 12.75V1.125ZM59.1211 16.2031C58.6055 16.2031 58.1628 16.0208 57.793 15.6562C57.4284 15.2865 57.2461 14.8437 57.2461 14.3281C57.2461 13.8177 57.4284 13.3802 57.793 13.0156C58.1628 12.651 58.6055 12.4687 59.1211 12.4687C59.6211 12.4687 60.0586 12.651 60.4336 13.0156C60.8086 13.3802 60.9961 13.8177 60.9961 14.3281C60.9961 14.6719 60.9076 14.987 60.7305 15.2734C60.5586 15.5547 60.332 15.7812 60.0508 15.9531C59.7695 16.1198 59.4596 16.2031 59.1211 16.2031ZM63.791 16V-4.76837e-07H74.5723V2.78906H67.1738V6.60156H74.0176V9.39062H67.1738V13.2109H74.6035V16H63.791ZM80.5273 9.0625V16H77.1992V4H80.3711V6.11719H80.5117C80.7773 5.41927 81.2227 4.86719 81.8477 4.46094C82.4727 4.04948 83.2305 3.84375 84.1211 3.84375C84.9544 3.84375 85.681 4.02604 86.3008 4.39062C86.9206 4.75521 87.4023 5.27604 87.7461 5.95312C88.0898 6.625 88.2617 7.42708 88.2617 8.35937V16H84.9336V8.95312C84.9388 8.21875 84.7513 7.64583 84.3711 7.23438C83.9909 6.81771 83.4674 6.60937 82.8008 6.60937C82.3529 6.60937 81.957 6.70573 81.6133 6.89844C81.2747 7.09115 81.0091 7.3724 80.8164 7.74219C80.6289 8.10677 80.5326 8.54688 80.5273 9.0625ZM95.3066 16.1953C94.3952 16.1953 93.5697 15.9609 92.8301 15.4922C92.0957 15.0182 91.5124 14.3229 91.0801 13.4062C90.653 12.4844 90.4395 11.3542 90.4395 10.0156C90.4395 8.64062 90.6608 7.4974 91.1035 6.58594C91.5462 5.66927 92.1348 4.98437 92.8691 4.53125C93.6087 4.07292 94.4186 3.84375 95.2988 3.84375C95.9707 3.84375 96.5306 3.95833 96.9785 4.1875C97.4316 4.41146 97.7962 4.69271 98.0723 5.03125C98.3535 5.36458 98.5671 5.69271 98.7129 6.01562H98.8145V-4.76837e-07H102.135V16H98.8535V14.0781H98.7129C98.5566 14.4115 98.3353 14.7422 98.0488 15.0703C97.7676 15.3932 97.4004 15.6615 96.9473 15.875C96.4993 16.0885 95.9525 16.1953 95.3066 16.1953ZM96.3613 13.5469C96.8978 13.5469 97.3509 13.401 97.7207 13.1094C98.0957 12.8125 98.3822 12.3984 98.5801 11.8672C98.7832 11.3359 98.8848 10.7135 98.8848 10C98.8848 9.28646 98.7858 8.66667 98.5879 8.14062C98.39 7.61458 98.1035 7.20833 97.7285 6.92187C97.3535 6.63542 96.8978 6.49219 96.3613 6.49219C95.8145 6.49219 95.3535 6.64062 94.9785 6.9375C94.6035 7.23437 94.3197 7.64583 94.127 8.17187C93.9342 8.69792 93.8379 9.30729 93.8379 10C93.8379 10.6979 93.9342 11.3151 94.127 11.8516C94.3249 12.3828 94.6087 12.7995 94.9785 13.1016C95.3535 13.3984 95.8145 13.5469 96.3613 13.5469Z" fill="#89C5CC"/>
</svg>
